<svg width="45" height="45" viewBox="0 0 45 45" fill="none" xmlns="http://www.w3.org/2000/svg">
<path fill-rule="evenodd" clip-rule="evenodd" d="M24.3506 10.7625C25.0711 10.3539 25.6359 9.71819 25.9571 8.9547C26.2782 8.19122 26.3376 7.34289 26.1258 6.54213C25.9141 5.74138 25.4432 5.03325 24.7867 4.52827C24.1302 4.0233 23.3249 3.74989 22.4966 3.75073C21.6684 3.75158 20.8637 4.02661 20.2081 4.53292C19.5526 5.03923 19.0832 5.74831 18.8731 6.5495C18.663 7.35068 18.724 8.19889 19.0467 8.96172C19.3694 9.72455 19.9356 10.3591 20.6569 10.7663L20.6381 10.8C19.41 13.3632 17.7037 17.0344 15.0694 18.4125C12.9056 19.5431 9.80062 18.975 7.49437 18.5513C7.45738 18.0269 7.27414 17.5233 6.96545 17.0978C6.65676 16.6722 6.23497 16.3417 5.74795 16.1437C5.26093 15.9458 4.72817 15.8883 4.21013 15.9777C3.69208 16.0672 3.20948 16.3001 2.81709 16.65C2.4247 16.9999 2.13823 17.4527 1.99018 17.9572C1.84213 18.4616 1.83842 18.9974 1.97949 19.5039C2.12056 20.0103 2.40074 20.4671 2.78826 20.8223C3.17578 21.1776 3.65511 21.4171 4.17187 21.5138L9.69937 35.7825C10.1093 36.8403 10.8295 37.7495 11.7654 38.3906C12.7014 39.0318 13.8093 39.3749 14.9437 39.375H30.0562C31.1907 39.3749 32.2986 39.0318 33.2346 38.3906C34.1705 37.7495 34.8907 36.8403 35.3006 35.7825L40.8262 21.5138C41.3398 21.4182 41.8165 21.1815 42.2031 20.8303C42.5896 20.479 42.8708 20.027 43.0149 19.525C43.1591 19.023 43.1606 18.4907 43.0193 17.9878C42.878 17.485 42.5994 17.0314 42.2148 16.678C41.8303 16.3245 41.3549 16.0852 40.8419 15.9867C40.3289 15.8882 39.7987 15.9345 39.3106 16.1204C38.8225 16.3064 38.3958 16.6245 38.0783 17.0393C37.7608 17.4541 37.5651 17.949 37.5131 18.4688C35.1525 18.7744 32.1094 19.1644 29.9306 18.0263C27.3487 16.6763 25.6181 13.2582 24.3506 10.7625ZM22.5469 15.2007C23.9869 17.5369 25.7137 20.0513 28.1944 21.3507C30.6825 22.65 33.7444 22.5844 36.4819 22.35L31.8037 34.4269C31.6672 34.7795 31.4273 35.0826 31.1155 35.2965C30.8036 35.5103 30.4344 35.6248 30.0562 35.625H14.9437C14.5656 35.6248 14.1964 35.5103 13.8845 35.2965C13.5727 35.0826 13.3328 34.7795 13.1962 34.4269L8.58187 22.515C11.28 22.86 14.3325 23.0288 16.8056 21.735C19.3894 20.385 21.1181 17.6625 22.5469 15.2007Z" fill="black"/>
</svg>
