<svg width="46" height="46" viewBox="0 0 46 46" fill="none" xmlns="http://www.w3.org/2000/svg">
<path d="M20.125 30.7826L12.9375 23.5937L14.9687 21.5625L20.125 26.7174L31.0284 15.8125L33.0625 17.8466L20.125 30.7826Z" fill="black"/>
<path d="M23 2.875C19.0197 2.875 15.1287 4.05531 11.8192 6.26667C8.50962 8.47804 5.93015 11.6211 4.40693 15.2985C2.88372 18.9759 2.48518 23.0223 3.26171 26.9262C4.03823 30.8301 5.95495 34.416 8.76948 37.2305C11.584 40.0451 15.1699 41.9618 19.0738 42.7383C22.9777 43.5148 27.0242 43.1163 30.7015 41.5931C34.3789 40.0699 37.522 37.4904 39.7333 34.1809C41.9447 30.8713 43.125 26.9803 43.125 23C43.125 17.6625 41.0047 12.5436 37.2305 8.76948C33.4564 4.99531 28.3375 2.875 23 2.875ZM23 40.25C19.5883 40.25 16.2532 39.2383 13.4164 37.3428C10.5797 35.4474 8.3687 32.7533 7.06309 29.6013C5.75748 26.4493 5.41587 22.9809 6.08146 19.6347C6.74706 16.2885 8.38996 13.2149 10.8024 10.8024C13.2149 8.38995 16.2885 6.74705 19.6347 6.08145C22.9809 5.41586 26.4493 5.75747 29.6013 7.06308C32.7533 8.36869 35.4474 10.5797 37.3429 13.4164C39.2383 16.2532 40.25 19.5883 40.25 23C40.25 27.575 38.4326 31.9626 35.1976 35.1976C31.9626 38.4326 27.575 40.25 23 40.25Z" fill="black"/>
</svg>
