<svg width="140" height="58" viewBox="0 0 140 58" fill="none" xmlns="http://www.w3.org/2000/svg">
<path d="M22.1367 51.6543H19.8574V50.7344H22.1367C22.5781 50.7344 22.9355 50.6641 23.209 50.5234C23.4824 50.3828 23.6816 50.1875 23.8066 49.9375C23.9355 49.6875 24 49.4023 24 49.082C24 48.7891 23.9355 48.5137 23.8066 48.2559C23.6816 47.998 23.4824 47.791 23.209 47.6348C22.9355 47.4746 22.5781 47.3945 22.1367 47.3945H20.1211V55H18.9902V46.4688H22.1367C22.7812 46.4688 23.3262 46.5801 23.7715 46.8027C24.2168 47.0254 24.5547 47.334 24.7852 47.7285C25.0156 48.1191 25.1309 48.5664 25.1309 49.0703C25.1309 49.6172 25.0156 50.084 24.7852 50.4707C24.5547 50.8574 24.2168 51.1523 23.7715 51.3555C23.3262 51.5547 22.7812 51.6543 22.1367 51.6543ZM30.0645 53.916V50.6523C30.0645 50.4023 30.0137 50.1855 29.9121 50.002C29.8145 49.8145 29.666 49.6699 29.4668 49.5684C29.2676 49.4668 29.0215 49.416 28.7285 49.416C28.4551 49.416 28.2148 49.4629 28.0078 49.5566C27.8047 49.6504 27.6445 49.7734 27.5273 49.9258C27.4141 50.0781 27.3574 50.2422 27.3574 50.418H26.2734C26.2734 50.1914 26.332 49.9668 26.4492 49.7441C26.5664 49.5215 26.7344 49.3203 26.9531 49.1406C27.1758 48.957 27.4414 48.8125 27.75 48.707C28.0625 48.5977 28.4102 48.543 28.793 48.543C29.2539 48.543 29.6602 48.6211 30.0117 48.7773C30.3672 48.9336 30.6445 49.1699 30.8438 49.4863C31.0469 49.7988 31.1484 50.1914 31.1484 50.6641V53.6172C31.1484 53.8281 31.166 54.0527 31.2012 54.291C31.2402 54.5293 31.2969 54.7344 31.3711 54.9062V55H30.2402C30.1855 54.875 30.1426 54.709 30.1113 54.502C30.0801 54.291 30.0645 54.0957 30.0645 53.916ZM30.252 51.1562L30.2637 51.918H29.168C28.8594 51.918 28.584 51.9434 28.3418 51.9941C28.0996 52.041 27.8965 52.1133 27.7324 52.2109C27.5684 52.3086 27.4434 52.4316 27.3574 52.5801C27.2715 52.7246 27.2285 52.8945 27.2285 53.0898C27.2285 53.2891 27.2734 53.4707 27.3633 53.6348C27.4531 53.7988 27.5879 53.9297 27.7676 54.0273C27.9512 54.1211 28.1758 54.168 28.4414 54.168C28.7734 54.168 29.0664 54.0977 29.3203 53.957C29.5742 53.8164 29.7754 53.6445 29.9238 53.4414C30.0762 53.2383 30.1582 53.041 30.1699 52.8496L30.6328 53.3711C30.6055 53.5352 30.5312 53.7168 30.4102 53.916C30.2891 54.1152 30.127 54.3066 29.9238 54.4902C29.7246 54.6699 29.4863 54.8203 29.209 54.9414C28.9355 55.0586 28.627 55.1172 28.2832 55.1172C27.8535 55.1172 27.4766 55.0332 27.1523 54.8652C26.832 54.6973 26.582 54.4727 26.4023 54.1914C26.2266 53.9062 26.1387 53.5879 26.1387 53.2363C26.1387 52.8965 26.2051 52.5977 26.3379 52.3398C26.4707 52.0781 26.6621 51.8613 26.9121 51.6895C27.1621 51.5137 27.4629 51.3809 27.8145 51.291C28.166 51.2012 28.5586 51.1562 28.9922 51.1562H30.252ZM36.9199 45.9004H37.8105C37.8105 46.2832 37.752 46.5879 37.6348 46.8145C37.5176 47.0371 37.3574 47.209 37.1543 47.3301C36.9551 47.4512 36.7285 47.543 36.4746 47.6055C36.2246 47.668 35.9648 47.7285 35.6953 47.7871C35.3594 47.8574 35.0469 47.9688 34.7578 48.1211C34.4727 48.2695 34.2266 48.4805 34.0195 48.7539C33.8164 49.0273 33.666 49.3828 33.5684 49.8203C33.4746 50.2578 33.4492 50.7988 33.4922 51.4434V51.9824H32.6016V51.4434C32.6016 50.7207 32.6699 50.0898 32.8066 49.5508C32.9473 49.0117 33.1445 48.5566 33.3984 48.1855C33.6523 47.8145 33.9531 47.5195 34.3008 47.3008C34.6523 47.082 35.0391 46.9316 35.4609 46.8496C35.7656 46.791 36.0273 46.7285 36.2461 46.6621C36.4648 46.5918 36.6309 46.498 36.7441 46.3809C36.8613 46.2637 36.9199 46.1035 36.9199 45.9004ZM35.6367 49.0234C36.0508 49.0234 36.4199 49.0957 36.7441 49.2402C37.0684 49.3848 37.3438 49.5859 37.5703 49.8438C37.7969 50.1016 37.9688 50.4062 38.0859 50.7578C38.207 51.1055 38.2676 51.4844 38.2676 51.8945V52.0234C38.2676 52.4648 38.2031 52.875 38.0742 53.2539C37.9492 53.6289 37.7637 53.957 37.5176 54.2383C37.2754 54.5156 36.9785 54.7324 36.627 54.8887C36.2793 55.0449 35.8828 55.123 35.4375 55.123C34.9922 55.123 34.5938 55.0449 34.2422 54.8887C33.8945 54.7324 33.5977 54.5156 33.3516 54.2383C33.1055 53.957 32.918 53.6289 32.7891 53.2539C32.6641 52.875 32.6016 52.4648 32.6016 52.0234V51.8945C32.6016 51.7969 32.6191 51.7012 32.6543 51.6074C32.6895 51.5137 32.7324 51.418 32.7832 51.3203C32.8379 51.2227 32.8867 51.1191 32.9297 51.0098C33.0742 50.6582 33.2715 50.332 33.5215 50.0312C33.7754 49.7305 34.0781 49.4883 34.4297 49.3047C34.7852 49.1172 35.1875 49.0234 35.6367 49.0234ZM35.4258 49.9082C35.0273 49.9082 34.6992 50 34.4414 50.1836C34.1875 50.3672 33.998 50.6113 33.873 50.916C33.748 51.2168 33.6855 51.543 33.6855 51.8945V52.0234C33.6855 52.3203 33.7207 52.6016 33.791 52.8672C33.8613 53.1328 33.9668 53.3691 34.1074 53.5762C34.252 53.7793 34.4336 53.9395 34.6523 54.0566C34.875 54.1738 35.1367 54.2324 35.4375 54.2324C35.7383 54.2324 35.998 54.1738 36.2168 54.0566C36.4355 53.9395 36.6152 53.7793 36.7559 53.5762C36.8965 53.3691 37.002 53.1328 37.0723 52.8672C37.1426 52.6016 37.1777 52.3203 37.1777 52.0234V51.8945C37.1777 51.6289 37.1426 51.377 37.0723 51.1387C37.002 50.9004 36.8945 50.6895 36.75 50.5059C36.6094 50.3223 36.4277 50.1777 36.2051 50.0723C35.9863 49.9629 35.7266 49.9082 35.4258 49.9082ZM39.2109 51.9004V51.7656C39.2109 51.3086 39.2773 50.8848 39.4102 50.4941C39.543 50.0996 39.7344 49.7578 39.9844 49.4688C40.2344 49.1758 40.5371 48.9492 40.8926 48.7891C41.248 48.625 41.6465 48.543 42.0879 48.543C42.5332 48.543 42.9336 48.625 43.2891 48.7891C43.6484 48.9492 43.9531 49.1758 44.2031 49.4688C44.457 49.7578 44.6504 50.0996 44.7832 50.4941C44.916 50.8848 44.9824 51.3086 44.9824 51.7656V51.9004C44.9824 52.3574 44.916 52.7812 44.7832 53.1719C44.6504 53.5625 44.457 53.9043 44.2031 54.1973C43.9531 54.4863 43.6504 54.7129 43.2949 54.877C42.9434 55.0371 42.5449 55.1172 42.0996 55.1172C41.6543 55.1172 41.2539 55.0371 40.8984 54.877C40.543 54.7129 40.2383 54.4863 39.9844 54.1973C39.7344 53.9043 39.543 53.5625 39.4102 53.1719C39.2773 52.7812 39.2109 52.3574 39.2109 51.9004ZM40.2949 51.7656V51.9004C40.2949 52.2168 40.332 52.5156 40.4062 52.7969C40.4805 53.0742 40.5918 53.3203 40.7402 53.5352C40.8926 53.75 41.082 53.9199 41.3086 54.0449C41.5352 54.166 41.7988 54.2266 42.0996 54.2266C42.3965 54.2266 42.6562 54.166 42.8789 54.0449C43.1055 53.9199 43.293 53.75 43.4414 53.5352C43.5898 53.3203 43.7012 53.0742 43.7754 52.7969C43.8535 52.5156 43.8926 52.2168 43.8926 51.9004V51.7656C43.8926 51.4531 43.8535 51.1582 43.7754 50.8809C43.7012 50.5996 43.5879 50.3516 43.4355 50.1367C43.2871 49.918 43.0996 49.7461 42.873 49.6211C42.6504 49.4961 42.3887 49.4336 42.0879 49.4336C41.791 49.4336 41.5293 49.4961 41.3027 49.6211C41.0801 49.7461 40.8926 49.918 40.7402 50.1367C40.5918 50.3516 40.4805 50.5996 40.4062 50.8809C40.332 51.1582 40.2949 51.4531 40.2949 51.7656ZM48.7969 48.6602V55H47.707V48.6602H48.7969ZM50.9238 48.6602V49.5391H45.6211V48.6602H50.9238ZM55.6348 53.916V50.6523C55.6348 50.4023 55.584 50.1855 55.4824 50.002C55.3848 49.8145 55.2363 49.6699 55.0371 49.5684C54.8379 49.4668 54.5918 49.416 54.2988 49.416C54.0254 49.416 53.7852 49.4629 53.5781 49.5566C53.375 49.6504 53.2148 49.7734 53.0977 49.9258C52.9844 50.0781 52.9277 50.2422 52.9277 50.418H51.8438C51.8438 50.1914 51.9023 49.9668 52.0195 49.7441C52.1367 49.5215 52.3047 49.3203 52.5234 49.1406C52.7461 48.957 53.0117 48.8125 53.3203 48.707C53.6328 48.5977 53.9805 48.543 54.3633 48.543C54.8242 48.543 55.2305 48.6211 55.582 48.7773C55.9375 48.9336 56.2148 49.1699 56.4141 49.4863C56.6172 49.7988 56.7188 50.1914 56.7188 50.6641V53.6172C56.7188 53.8281 56.7363 54.0527 56.7715 54.291C56.8105 54.5293 56.8672 54.7344 56.9414 54.9062V55H55.8105C55.7559 54.875 55.7129 54.709 55.6816 54.502C55.6504 54.291 55.6348 54.0957 55.6348 53.916ZM55.8223 51.1562L55.834 51.918H54.7383C54.4297 51.918 54.1543 51.9434 53.9121 51.9941C53.6699 52.041 53.4668 52.1133 53.3027 52.2109C53.1387 52.3086 53.0137 52.4316 52.9277 52.5801C52.8418 52.7246 52.7988 52.8945 52.7988 53.0898C52.7988 53.2891 52.8438 53.4707 52.9336 53.6348C53.0234 53.7988 53.1582 53.9297 53.3379 54.0273C53.5215 54.1211 53.7461 54.168 54.0117 54.168C54.3438 54.168 54.6367 54.0977 54.8906 53.957C55.1445 53.8164 55.3457 53.6445 55.4941 53.4414C55.6465 53.2383 55.7285 53.041 55.7402 52.8496L56.2031 53.3711C56.1758 53.5352 56.1016 53.7168 55.9805 53.916C55.8594 54.1152 55.6973 54.3066 55.4941 54.4902C55.2949 54.6699 55.0566 54.8203 54.7793 54.9414C54.5059 55.0586 54.1973 55.1172 53.8535 55.1172C53.4238 55.1172 53.0469 55.0332 52.7227 54.8652C52.4023 54.6973 52.1523 54.4727 51.9727 54.1914C51.7969 53.9062 51.709 53.5879 51.709 53.2363C51.709 52.8965 51.7754 52.5977 51.9082 52.3398C52.041 52.0781 52.2324 51.8613 52.4824 51.6895C52.7324 51.5137 53.0332 51.3809 53.3848 51.291C53.7363 51.2012 54.1289 51.1562 54.5625 51.1562H55.8223ZM61.0547 55.1172C60.6133 55.1172 60.2129 55.043 59.8535 54.8945C59.498 54.7422 59.1914 54.5293 58.9336 54.2559C58.6797 53.9824 58.4844 53.6582 58.3477 53.2832C58.2109 52.9082 58.1426 52.498 58.1426 52.0527V51.8066C58.1426 51.291 58.2188 50.832 58.3711 50.4297C58.5234 50.0234 58.7305 49.6797 58.9922 49.3984C59.2539 49.1172 59.5508 48.9043 59.8828 48.7598C60.2148 48.6152 60.5586 48.543 60.9141 48.543C61.3672 48.543 61.7578 48.6211 62.0859 48.7773C62.418 48.9336 62.6895 49.1523 62.9004 49.4336C63.1113 49.7109 63.2676 50.0391 63.3691 50.418C63.4707 50.793 63.5215 51.2031 63.5215 51.6484V52.1348H58.7871V51.25H62.4375V51.168C62.4219 50.8867 62.3633 50.6133 62.2617 50.3477C62.1641 50.082 62.0078 49.8633 61.793 49.6914C61.5781 49.5195 61.2852 49.4336 60.9141 49.4336C60.668 49.4336 60.4414 49.4863 60.2344 49.5918C60.0273 49.6934 59.8496 49.8457 59.7012 50.0488C59.5527 50.252 59.4375 50.5 59.3555 50.793C59.2734 51.0859 59.2324 51.4238 59.2324 51.8066V52.0527C59.2324 52.3535 59.2734 52.6367 59.3555 52.9023C59.4414 53.1641 59.5645 53.3945 59.7246 53.5938C59.8887 53.793 60.0859 53.9492 60.3164 54.0625C60.5508 54.1758 60.8164 54.2324 61.1133 54.2324C61.4961 54.2324 61.8203 54.1543 62.0859 53.998C62.3516 53.8418 62.584 53.6328 62.7832 53.3711L63.4395 53.8926C63.3027 54.0996 63.1289 54.2969 62.918 54.4844C62.707 54.6719 62.4473 54.8242 62.1387 54.9414C61.834 55.0586 61.4727 55.1172 61.0547 55.1172ZM68.4316 53.5586L70.5879 48.6602H71.6309L68.8066 55H68.0566L65.2441 48.6602H66.2871L68.4316 53.5586ZM65.9707 48.6602V55H64.8867V48.6602H65.9707ZM70.8574 55V48.6602H71.9473V55H70.8574ZM79.207 54.2266C79.4648 54.2266 79.7031 54.1738 79.9219 54.0684C80.1406 53.9629 80.3203 53.8184 80.4609 53.6348C80.6016 53.4473 80.6816 53.2344 80.7012 52.9961H81.7324C81.7129 53.3711 81.5859 53.7207 81.3516 54.0449C81.1211 54.3652 80.8184 54.625 80.4434 54.8242C80.0684 55.0195 79.6562 55.1172 79.207 55.1172C78.7305 55.1172 78.3145 55.0332 77.959 54.8652C77.6074 54.6973 77.3145 54.4668 77.0801 54.1738C76.8496 53.8809 76.6758 53.5449 76.5586 53.166C76.4453 52.7832 76.3887 52.3789 76.3887 51.9531V51.707C76.3887 51.2812 76.4453 50.8789 76.5586 50.5C76.6758 50.1172 76.8496 49.7793 77.0801 49.4863C77.3145 49.1934 77.6074 48.9629 77.959 48.7949C78.3145 48.627 78.7305 48.543 79.207 48.543C79.7031 48.543 80.1367 48.6445 80.5078 48.8477C80.8789 49.0469 81.1699 49.3203 81.3809 49.668C81.5957 50.0117 81.7129 50.4023 81.7324 50.8398H80.7012C80.6816 50.5781 80.6074 50.3418 80.4785 50.1309C80.3535 49.9199 80.1816 49.752 79.9629 49.627C79.748 49.498 79.4961 49.4336 79.207 49.4336C78.875 49.4336 78.5957 49.5 78.3691 49.6328C78.1465 49.7617 77.9688 49.9375 77.8359 50.1602C77.707 50.3789 77.6133 50.623 77.5547 50.8926C77.5 51.1582 77.4727 51.4297 77.4727 51.707V51.9531C77.4727 52.2305 77.5 52.5039 77.5547 52.7734C77.6094 53.043 77.7012 53.2871 77.8301 53.5059C77.9629 53.7246 78.1406 53.9004 78.3633 54.0332C78.5898 54.1621 78.8711 54.2266 79.207 54.2266ZM87.0703 48.6602H88.1543L88.0605 51.0332C88.0371 51.6348 87.9688 52.1543 87.8555 52.5918C87.7422 53.0293 87.5977 53.4023 87.4219 53.7109C87.2461 54.0156 87.0488 54.2715 86.8301 54.4785C86.6152 54.6855 86.3926 54.8594 86.1621 55H85.623L85.6523 54.1152L85.875 54.1094C86.0039 53.957 86.1289 53.8008 86.25 53.6406C86.3711 53.4766 86.4824 53.2832 86.584 53.0605C86.6855 52.834 86.7695 52.5586 86.8359 52.2344C86.9062 51.9062 86.9512 51.5059 86.9707 51.0332L87.0703 48.6602ZM87.3398 48.6602H91.1543V55H90.0703V49.6621H87.3398V48.6602ZM85.377 54.1094H91.9688V56.8691H90.8848V55H86.4609V56.8691H85.3711L85.377 54.1094ZM94.9512 54.3438L96.7148 48.6602H97.875L95.332 55.9785C95.2734 56.1348 95.1953 56.3027 95.0977 56.4824C95.0039 56.666 94.8828 56.8398 94.7344 57.0039C94.5859 57.168 94.4062 57.3008 94.1953 57.4023C93.9883 57.5078 93.7402 57.5605 93.4512 57.5605C93.3652 57.5605 93.2559 57.5488 93.123 57.5254C92.9902 57.502 92.8965 57.4824 92.8418 57.4668L92.8359 56.5879C92.8672 56.5918 92.916 56.5957 92.9824 56.5996C93.0527 56.6074 93.1016 56.6113 93.1289 56.6113C93.375 56.6113 93.584 56.5781 93.7559 56.5117C93.9277 56.4492 94.0723 56.3418 94.1895 56.1895C94.3105 56.041 94.4141 55.8359 94.5 55.5742L94.9512 54.3438ZM93.6562 48.6602L95.3027 53.582L95.584 54.7246L94.8047 55.123L92.4727 48.6602H93.6562ZM98.9473 48.6602H100.031V54.1094H102.352V48.6602H103.441V54.1094H105.756V48.6602H106.84V55H98.9473V48.6602ZM108.281 51.9004V51.7656C108.281 51.3086 108.348 50.8848 108.48 50.4941C108.613 50.0996 108.805 49.7578 109.055 49.4688C109.305 49.1758 109.607 48.9492 109.963 48.7891C110.318 48.625 110.717 48.543 111.158 48.543C111.604 48.543 112.004 48.625 112.359 48.7891C112.719 48.9492 113.023 49.1758 113.273 49.4688C113.527 49.7578 113.721 50.0996 113.854 50.4941C113.986 50.8848 114.053 51.3086 114.053 51.7656V51.9004C114.053 52.3574 113.986 52.7812 113.854 53.1719C113.721 53.5625 113.527 53.9043 113.273 54.1973C113.023 54.4863 112.721 54.7129 112.365 54.877C112.014 55.0371 111.615 55.1172 111.17 55.1172C110.725 55.1172 110.324 55.0371 109.969 54.877C109.613 54.7129 109.309 54.4863 109.055 54.1973C108.805 53.9043 108.613 53.5625 108.48 53.1719C108.348 52.7812 108.281 52.3574 108.281 51.9004ZM109.365 51.7656V51.9004C109.365 52.2168 109.402 52.5156 109.477 52.7969C109.551 53.0742 109.662 53.3203 109.811 53.5352C109.963 53.75 110.152 53.9199 110.379 54.0449C110.605 54.166 110.869 54.2266 111.17 54.2266C111.467 54.2266 111.727 54.166 111.949 54.0449C112.176 53.9199 112.363 53.75 112.512 53.5352C112.66 53.3203 112.771 53.0742 112.846 52.7969C112.924 52.5156 112.963 52.2168 112.963 51.9004V51.7656C112.963 51.4531 112.924 51.1582 112.846 50.8809C112.771 50.5996 112.658 50.3516 112.506 50.1367C112.357 49.918 112.17 49.7461 111.943 49.6211C111.721 49.4961 111.459 49.4336 111.158 49.4336C110.861 49.4336 110.6 49.4961 110.373 49.6211C110.15 49.7461 109.963 49.918 109.811 50.1367C109.662 50.3516 109.551 50.5996 109.477 50.8809C109.402 51.1582 109.365 51.4531 109.365 51.7656ZM116.584 53.2832L119.508 48.6602H120.598V55H119.508V50.377L116.584 55H115.506V48.6602H116.584V53.2832ZM118.916 46.3633H119.795C119.795 46.668 119.725 46.9395 119.584 47.1777C119.443 47.4121 119.242 47.5957 118.98 47.7285C118.719 47.8613 118.408 47.9277 118.049 47.9277C117.506 47.9277 117.076 47.7832 116.76 47.4941C116.447 47.2012 116.291 46.8242 116.291 46.3633H117.17C117.17 46.5938 117.236 46.7969 117.369 46.9727C117.502 47.1484 117.729 47.2363 118.049 47.2363C118.361 47.2363 118.584 47.1484 118.717 46.9727C118.85 46.7969 118.916 46.5938 118.916 46.3633Z" fill="black"/>
<path d="M18.6 13.76L30.024 38H22.872L20.904 33.848H10.464L8.52 38H7.2L18.6 13.76ZM20.352 32.648L15.696 22.76L11.04 32.648H20.352Z" fill="#DC6421"/>
<path d="M33.1388 14H34.3388V30.008H51.3788V14H52.5788V38H51.3788V31.208H34.3388V38H33.1388V14ZM56.4122 38.264V14H57.6122V35.024L76.0922 13.76V38H74.8922V17.024L56.4122 38.264ZM81.1434 18.32V38H79.9434V13.76L92.5194 35.792L105.095 13.76V38H103.895V18.32L92.5194 38.24L81.1434 18.32ZM119.616 13.76L131.04 38H129.72L127.752 33.848H111.48L109.536 38H108.216L119.616 13.76ZM127.2 32.648L119.616 16.568L112.056 32.648H127.2Z" fill="#0B0B0B"/>
<line x1="127" y1="50.5" x2="140" y2="50.5" stroke="black"/>
<line y1="50.5" x2="13" y2="50.5" stroke="black"/>
</svg>
