<svg width="39" height="35" viewBox="0 0 39 35" fill="none" xmlns="http://www.w3.org/2000/svg">
<path d="M3.49917 35C2.5025 35 1.6705 34.6631 1.00317 33.9894C0.334389 33.3142 0 32.4734 0 31.4672V10.0953C0 9.08906 0.334389 8.24906 1.00317 7.57531C1.6705 6.9001 2.5025 6.5625 3.49917 6.5625H13V3.53281C13 2.52656 13.3344 1.68656 14.0032 1.01281C14.6705 0.337604 15.5025 0 16.4992 0H22.5008C23.4975 0 24.3302 0.337604 24.999 1.01281C25.6663 1.68656 26 2.52656 26 3.53281V6.5625H35.5008C36.4975 6.5625 37.3295 6.9001 37.9968 7.57531C38.6656 8.24906 39 9.08906 39 10.0953V31.4672C39 32.4734 38.6663 33.3134 37.999 33.9872C37.3302 34.6624 36.4975 35 35.5008 35H3.49917ZM15.1667 6.5625H23.8333V3.53281C23.8333 3.1974 23.6947 2.88896 23.4173 2.6075C23.1386 2.3275 22.8331 2.1875 22.5008 2.1875H16.4992C16.1669 2.1875 15.8614 2.3275 15.5827 2.6075C15.3053 2.88896 15.1667 3.1974 15.1667 3.53281V6.5625ZM36.8333 22.9688H23.8333V26.25H15.1667V22.9688H2.16667V31.4672C2.16667 31.8026 2.30533 32.111 2.58267 32.3925C2.86144 32.6725 3.16694 32.8125 3.49917 32.8125H35.5008C35.8331 32.8125 36.1386 32.6725 36.4173 32.3925C36.6947 32.111 36.8333 31.8026 36.8333 31.4672V22.9688ZM17.3333 24.0625H21.6667V19.6875H17.3333V24.0625ZM2.16667 20.7812H15.1667V17.5H23.8333V20.7812H36.8333V10.0953C36.8333 9.7599 36.6947 9.45146 36.4173 9.17C36.1386 8.89 35.8331 8.75 35.5008 8.75H3.49917C3.16694 8.75 2.86144 8.89 2.58267 9.17C2.30533 9.45146 2.16667 9.7599 2.16667 10.0953V20.7812Z" fill="black"/>
</svg>
